{"title":"White House Down (2013) BDRemux","uid":9038624,"size":28023799764,"categoryP":"video","categoryS":"hd___movies","magnet":"?xt=urn:btih:dbfac628a7f3eb62d79ce9c79349d9b75fb72563&amp;dn=White+House+Down+%282013%29+BDRemux&amp;tr=udp%3A%2F%2Ftracker.openbittorrent.com%3A80&amp;tr=udp%3A%2F%2Fopen.demonii.com%3A1337&amp;tr=udp%3A%2F%2Ftracker.coppersurfer.tk%3A6969&amp;tr=udp%3A%2F%2Fexodus.desync.com%3A6969","seeders":0,"leechers":1,"uploader":"yfjfrj","files":-1,"time":1381568786,"description":"General\nUnique ID                                : 191435362604265270114676755614338120093 (0x90051C16F70B1D08A27D723228A7F99D)\nComplete name                            : D:moviesSchturm.belogo.doma.2013.MPEG-4-AVC.BluRay-Remux(1080p).mkv\nFormat                                   : Matroska\nFormat version                           : Version 4 / Version 2\nFile size                                : 26.1 GiB\nDuration                                 : 2h 11mn\nOverall bit rate mode                    : Variable\nOverall bit rate                         : 28.4 Mbps\nMovie name                               : --SCHUMAHER--\nEncoded date                             : UTC 2010-02-22 21:41:31\nWriting application                      : mkvmerge v5.9.0 ('On The Loose') built on Dec  9 2012 15:37:01\nWriting library                          : libebml v1.3.0 + libmatroska v1.4.0\n\nVideo\nID                                       : 1\nFormat                                   : AVC\nFormat/Info                              : Advanced Video Codec\nFormat profile                           : &lt;a class=&quot;__cf_email__&quot; href=&quot;/cdn-cgi/l/email-protection&quot; data-cfemail=&quot;ade5c4cac5ede199839c&quot;&gt;[email&amp;#160;protected]&lt;/a&gt;&lt;script cf-hash='f9e31' type=&quot;text/javascript&quot;&gt;\n/* &lt;![CDATA[ */!function(){try{var t=&quot;currentScript&quot;in document?document.currentScript:function(){for(var t=document.getElementsByTagName(&quot;script&quot;),e=t.length;e--;)if(t[e].getAttribute(&quot;cf-hash&quot;))return t[e]}();if(t&amp;&amp;t.previousSibling){var e,r,n,i,c=t.previousSibling,a=c.getAttribute(&quot;data-cfemail&quot;);if(a){for(e=&quot;&quot;,r=parseInt(a.substr(0,2),16),n=2;a.length-n;n+=2)i=parseInt(a.substr(n,2),16)^r,e+=String.fromCharCode(i);e=document.createTextNode(e),c.parentNode.replaceChild(e,c)}}}catch(u){}}();/* ]]&gt; */&lt;/script&gt;\nFormat settings, CABAC                   : Yes\nFormat settings, ReFrames                : 2 frames\nCodec ID                                 : V_MPEG4/ISO/AVC\nDuration                                 : 2h 11mn\nBit rate mode                            : Variable\nWidth                                    : 1 920 pixels\nHeight                                   : 1 080 pixels\nDisplay aspect ratio                     : 16:9\nFrame rate mode                          : Constant\nFrame rate                               : 23.976 fps\nColor space                              : YUV\nChroma subsampling                       : 4:2:0\nBit depth                                : 8 bits\nScan type                                : Progressive\nLanguage                                 : English\nDefault                                  : Yes\nForced                                   : Yes\n\nAudio #1\nID                                       : 2\nFormat                                   : AC-3\nFormat/Info                              : Audio Coding 3\nMode extension                           : CM (complete main)\nFormat settings, Endianness              : Big\nCodec ID                                 : A_AC3\nDuration                                 : 2h 11mn\nBit rate mode                            : Constant\nBit rate                                 : 640 Kbps\nChannel(s)                               : 6 channels\nChannel positions                        : Front: L C R, Side: L R, LFE\nSampling rate                            : 48.0 KHz\nBit depth                                : 16 bits\nCompression mode                         : Lossy\nStream size                              : 602 MiB (2%)\nLanguage                                 : Russian\nDefault                                  : Yes\nForced                                   : Yes\n\nAudio #2\nID                                       : 3\nFormat                                   : AC-3\nFormat/Info                              : Audio Coding 3\nMode extension                           : CM (complete main)\nFormat settings, Endianness              : Big\nCodec ID                                 : A_AC3\nDuration                                 : 2h 11mn\nBit rate mode                            : Constant\nBit rate                                 : 640 Kbps\nChannel(s)                               : 6 channels\nChannel positions                        : Front: L C R, Side: L R, LFE\nSampling rate                            : 48.0 KHz\nBit depth                                : 16 bits\nCompression mode                         : Lossy\nStream size                              : 602 MiB (2%)\nLanguage                                 : Ukrainian\nDefault                                  : No\nForced                                   : No\n\nAudio #3\nID                                       : 4\nFormat                                   : DTS\nFormat/Info                              : Digital Theater Systems\nFormat profile                           : MA / Core\nMode                                     : 16\nFormat settings, Endianness              : Big\nCodec ID                                 : A_DTS\nDuration                                 : 2h 11mn\nBit rate mode                            : Variable\nBit rate                                 : Unknown / 1 509 Kbps\nChannel(s)                               : 6 channels\nChannel positions                        : Front: L C R, Side: L R, LFE\nSampling rate                            : 48.0 KHz\nBit depth                                : 16 bits\nCompression mode                         : Lossless / Lossy\nLanguage                                 : English\nDefault                                  : No\nForced                                   : No\n\nText\nID                                       : 5\nFormat                                   : UTF-8\nCodec ID                                 : S_TEXT/UTF8\nCodec ID/Info                            : UTF-8 Plain Text\nLanguage                                 : Russian\nDefault                                  : No\nForced                                   : No\n\nMenu\n00:00:00.000                             : en:00:00:00.000\n00:06:39.774                             : en:00:06:39.774\n00:15:18.835                             : en:00:15:18.835\n00:21:37.838                             : en:00:21:37.838\n00:30:10.809                             : en:00:30:10.809\n00:37:47.348                             : en:00:37:47.348\n00:45:51.207                             : en:00:45:51.207\n00:51:12.278                             : en:00:51:12.278\n00:59:55.133                             : en:00:59:55.133\n01:07:08.942                             : en:01:07:08.942\n01:14:42.853                             : en:01:14:42.853\n01:24:13.590                             : en:01:24:13.590\n01:29:53.805                             : en:01:29:53.805\n01:37:27.717                             : en:01:37:27.717\n01:44:36.562                             : en:01:44:36.562\n01:54:17.851                             : en:01:54:17.851\n","torrent":{"xt":"urn:btih:dbfac628a7f3eb62d79ce9c79349d9b75fb72563","amp;dn":"White+House+Down+%282013%29+BDRemux","amp;tr":["udp%3A%2F%2Ftracker.openbittorrent.com%3A80","udp%3A%2F%2Fopen.demonii.com%3A1337","udp%3A%2F%2Ftracker.coppersurfer.tk%3A6969","udp%3A%2F%2Fexodus.desync.com%3A6969"],"infoHash":"dbfac628a7f3eb62d79ce9c79349d9b75fb72563","infoHashBuffer":{"type":"Buffer","data":[219,250,198,40,167,243,235,98,215,156,233,199,147,73,217,183,95,183,37,99]},"announce":[],"urlList":[]}}